<svg xmlns="http://www.w3.org/2000/svg" width="200" height="100" viewBox="0 0 200 100"><path fill="#F5AF02" d="M126.6,52.4c-9.1,0.3-14.7,1.9-14.7,7.9c0,3.9,3.1,8.1,10.9,8.1c10.5,0,16.1-5.7,16.1-15.1v-1 C135.2,52.3,130.7,52.3,126.6,52.4L126.6,52.4z M149,64.8c0,2.9,0.1,5.8,0.3,8.4H140c-0.2-2.1-0.3-4.2-0.3-6.3c-5,6.2-11,8-19.4,8 c-12.3,0-18.9-6.5-18.9-14c0-10.9,9-14.8,24.6-15.1c4.3-0.1,9.1-0.1,13-0.1v-1.1c0-7.3-4.7-10.3-12.8-10.3c-6,0-10.5,2.5-10.9,6.8 h-10.5c1.1-10.7,12.4-13.5,22.3-13.5c11.9,0,21.9,4.2,21.9,16.8L149,64.8L149,64.8z"/><path fill="#E53238" d="M39.9,47.1c-0.4-9.4-7.1-12.9-14.4-12.9c-7.8,0-14,3.9-15.1,12.9H39.9z M10.2,53.7 c0.5,9.1,6.8,14.5,15.4,14.5c6,0,11.3-2.4,13.1-7.7H49c-2,10.7-13.5,14.4-23.3,14.4C7.9,74.9,0,65,0,51.8c0-14.6,8.2-24.2,26-24.2 c14.1,0,24.5,7.4,24.5,23.6v2.7H10.2z"/><path fill="#0064D2" d="M76.1,68c9.3,0,15.7-6.7,15.7-16.8s-6.4-16.8-15.7-16.8c-9.3,0-15.7,6.7-15.7,16.8S66.9,68,76.1,68z  M50.5,9.9h10v25.2c4.9-5.9,11.7-7.5,18.3-7.5c11.2,0,23.6,7.5,23.6,23.8c0,13.6-9.9,23.6-23.8,23.6c-7.3,0-14.1-2.6-18.3-7.8 c0,2.1-0.1,4.1-0.3,6.1h-9.9c0.1-3.2,0.3-7.1,0.3-10.3L50.5,9.9L50.5,9.9z"/><path fill="#86B817" d="M200,29.2l-31,60.9h-11.2l8.9-16.9l-23.3-44h11.7l17.2,34.4l17.1-34.4H200L200,29.2z"/></svg>