<svg xmlns="http://www.w3.org/2000/svg" width="200" height="100" viewBox="0 0 200 47.9"><path fill="#E43225" d="M51.1 35.8V4.1h18.7v4H55v9.7h13.3v4H55v10h15.9v4H51.1zM90.6 35.8l-6.5-8.4-6.4 8.4h-4.6l8.8-11.3-9.3-11.6h5.1l6.4 8.7 6.4-8.7h5l-8.8 11.6 8.4 11.3h-4.5zM101.4 32.3v15.6h-3.9V24.6c0-5.9 4.6-12.3 11.7-12.3s12.6 4.6 12.6 12c0 7.3-5.5 12.3-11.7 12.3-3.2 0-7.2-1.3-8.7-4.3zm16.2-8c0-5.1-3.3-8.1-9.1-7.9-2.8.1-7.2 2.2-6.8 9.5.1 2.3 2.6 6.8 7.9 6.8 4.6 0 8-2.6 8-8.4zM125 35.8V12.9h3.8v2.4c1.9-2.1 4.8-3 7.9-3v4.2c-.4 0-5.1-.6-7.9 5.4v13.9H125zM137.9 24.3c0-6.6 4.7-12 11.3-12 8.1 0 11.2 5.4 11.2 12.3v1.9h-18.2c.3 4.3 4.2 6.6 7.7 6.5 2.7-.1 4.5-.9 6.3-2.8l2.5 2.6c-2.3 2.3-5.4 3.8-9.1 3.8-6.8 0-11.7-5.1-11.7-12.3zm10.9-8.2c-3.7 0-6.5 3.2-6.7 6.7h14.1c0-3.3-2.5-6.7-7.4-6.7zM162.2 32.6s2.8-2.5 2.8-2.5c-.1 0 1.4 1.5 1.6 1.6.6.5 1.4.9 2.2 1.1 2.5.7 6.9.4 7.2-2.9.2-1.9-1.3-3-2.9-3.5-2.1-.8-4.4-1.1-6.4-2-2.3-1-3.8-2.9-3.8-5.5 0-6.9 9.8-8 14.2-4.8.2.2 2.4 2.1 2.3 2.2l-2.9 2.2c-1.4-1.7-2.8-2.5-5.8-2.6-1.5 0-3.6.6-4 2.3-.6 2.3 2 3.1 3.7 3.6 2.3.6 4.7.9 6.7 2.2 2.7 1.7 3.4 5.4 2.3 8.2-1.2 3.1-4.5 4.3-7.6 4.4-3.6.2-6.7-1-9.3-3.5.2-.1-.3-.5-.3-.5zM182.2 32.6s2.8-2.5 2.8-2.5c-.1 0 1.4 1.5 1.6 1.6.6.5 1.4.9 2.2 1.1 2.5.7 6.9.4 7.2-2.9.2-1.9-1.3-3-2.9-3.5-2.1-.8-4.4-1.1-6.4-2-2.3-1-3.8-2.9-3.8-5.5 0-6.9 9.8-8 14.2-4.8.2.2 2.4 2.1 2.3 2.2l-2.9 2.2c-1.4-1.7-2.8-2.5-5.8-2.6-1.5 0-3.6.6-4 2.3-.6 2.3 2 3.1 3.7 3.6 2.3.6 4.7.9 6.7 2.2 2.7 1.7 3.4 5.4 2.3 8.2-1.2 3.1-4.5 4.3-7.6 4.4-3.6.2-6.7-1-9.3-3.5.1-.1-.3-.5-.3-.5z"/><path fill="#F7971D" d="M24.9 35.8l-2.8-7.5H6.8L4 35.8H0L12.3 4.1h4.4l12.2 31.6h-4zM14.2 8.6L8.5 24.3h12L14.2 8.6zM31.3 35.8V4.1h3.9v31.6h-3.9zM41.2 35.8V13.3h3.9v22.4h-3.9zM49 6c0-.1 0-.1 0-.2s0-.1 0-.2C46 5.5 43.5 3 43.4 0c-.1 0-.2 0-.2 0-.1 0-.2 0-.2 0-.1 3-2.5 5.5-5.6 5.6 0 .1 0 .1 0 .2s0 .1 0 .2c3 .1 5.5 2.6 5.6 5.6.1 0 .2 0 .2 0 .1 0 .2 0 .2 0 .1-3 2.6-5.4 5.6-5.6z"/></svg>