<svg xmlns="http://www.w3.org/2000/svg" width="340" height="70"><path fill="#ED5565" d="M126.1 9.7h-8.3V6.1c0-1.1 0-1.7-.2-2-.2-.4-.5-.4-1.1-.4-.7 0-1.1.1-1.3.5-.2.4-.4 1-.4 2V16c0 1.1.2 1.7.4 2 .2.4.5.5 1.3.5.5 0 1.1-.1 1.3-.5.2-.4.4-1.1.4-2.2v-2.6h8.3v.8c0 2.2-.2 3.7-.7 4.7s-1.5 1.7-3.1 2.4-3.6 1.1-6 1.1-4.5-.2-6-.8c-1.6-.6-2.5-1.4-3.1-2.4-.6-1-.7-2.6-.7-4.7V8.1c0-1.6 0-2.6.2-3.5.2-.7.5-1.4 1.5-2.2.7-.7 1.8-1.3 3.3-1.7 1.5-.4 2.9-.6 4.7-.6 2.5 0 4.5.4 6 1 1.6.6 2.7 1.4 3.1 2.4.4 1 .7 2.4.7 4.3v1.8l-.3.1zm21-1.7v5.1c0 1.9-.2 3.4-.4 4.3s-.7 1.8-1.5 2.5c-.7.7-1.8 1.3-2.9 1.8-1.3.3-2.6.6-4.2.6-1.8 0-3.3-.1-4.6-.4-1.3-.3-2.2-.7-2.9-1.5-.7-.6-1.1-1.5-1.5-2.4-.4-.9-.4-2.2-.4-4.1V8.5c0-1.9.2-3.5.7-4.6.6-1.2 1.5-2.1 2.9-2.6 1.5-.7 3.1-1 5.3-1 1.8 0 3.3.1 4.6.6 1.3.4 2.4 1 2.9 1.6.7.7 1.1 1.5 1.5 2.2.4.7.5 1.8.5 3.3zm-8-1.6c0-1 0-1.8-.2-2.1-.2-.3-.6-.4-.9-.4-.4 0-.7.1-.9.4-.2.3-.2 1-.2 2.1V16c0 1 0 1.6.2 1.9.2.3.6.4.9.4.6 0 .7-.1.9-.4.2-.3.2-.9.2-1.8V6.4zM157.8.7l-.2 2.1c.6-.7 1.3-1.5 2.2-1.8.9-.4 1.8-.6 2.9-.6 2.2 0 3.9.7 5.1 2.4.7-.7 1.5-1.5 2.4-1.8.9-.4 1.8-.6 2.8-.6 1.3 0 2.6.3 3.5.7 1 .6 1.5 1.2 1.7 1.9.2.7.4 2.1.4 3.8v15h-7.7V8c0-1.8 0-2.9-.2-3.4s-.6-.6-1.1-.6-.9.1-1.1.6-.2 1.6-.2 3.4v13.8h-7.9V8.3c0-2.1 0-3.4-.2-3.7-.2-.4-.6-.7-1.1-.7-.4 0-.7.1-.9.3-.2.1-.4.4-.4.7s0 1 0 2.1v14.7h-7.9V.7s7.9 0 7.9 0zm31.8 0l-.2 1.9c.7-.7 1.5-1.3 2.4-1.8.9-.4 1.8-.6 2.8-.6 1.3 0 2.4.3 3.3.7.9.6 1.5 1.2 1.7 1.9.2.7.4 1.9.4 3.5v9c0 1.9-.2 3.2-.4 4.1-.4.9-.9 1.5-1.8 1.9-.9.4-2 .7-3.1.7-.9 0-1.8-.1-2.8-.6s-1.7-.9-2.4-1.6v4.9h-8.1V.7s8.2 0 8.2 0zm2.4 6.1c0-1.3 0-2.1-.2-2.4s-.4-.4-.9-.4c-.6 0-.9.1-1.1.4s-.2 1-.2 2.4v8.8c0 1.3 0 2.1.2 2.4s.6.4 1.1.4c.6 0 .9-.1.9-.4.2-.3.2-1 .2-2.2 0 0 0-9 0-9zM210.8.7l-.4 2.8c1.1-2.1 2.9-3.1 5.1-3.2v7.5c-1.5 0-2.6.1-3.3.4s-1.1.7-1.3 1.3c-.2.6-.2 1.9-.2 4v8.4h-8.1V.7h8.2zm13.9 8.1H217V7.3c0-1.6.2-2.9.7-3.8.6-.9 1.5-1.6 2.9-2.4 1.4-.8 3.3-1 5.5-1 2.8 0 4.8.4 6.2 1.2 1.6.7 2.3 1.7 2.7 2.7.4 1.2.4 3.4.4 6.9v10.9h-7.9v-1.9c-.6.7-1.1 1.3-1.8 1.8-.7.4-1.7.6-2.8.6-1.5 0-2.8-.3-3.9-.9s-1.8-2.1-1.8-4.1v-1.8c0-1.6.4-2.6.9-3.2.6-.6 2.2-1.2 4.6-2.1 2.6-.9 4-1.3 4.2-1.6.2-.3.4-.9.4-1.8 0-1.2-.2-1.8-.4-2.2-.2-.3-.6-.4-1.1-.4s-.9.1-1.1.4c-.2.3-.2 1-.2 2.2v1.9h.2v.1zm2.6 2.9c-1.3.7-2 1.3-2.2 1.9-.2.6-.4 1.2-.4 2.2s0 1.8.2 2.1c.2.3.6.4 1.1.4s.9-.1.9-.4c.2-.3.2-.9.2-1.9v-4.3s.2 0 .2 0zm27.4-4.3h-7.2V6.2c0-1 0-1.6-.2-1.9s-.6-.4-1.1-.4c-.4 0-.7.1-1.1.3-.2.3-.4.6-.4 1 0 .6 0 1.2.2 1.5.2.3.4.6 1.1 1s1.7.9 3.5 1.6c2.4.9 3.9 1.8 4.6 2.6.7.9 1.1 2.1 1.1 3.5 0 1.8-.4 3.1-.9 4-.6.9-1.5 1.6-2.8 2.1-1.3.4-2.9.7-4.8.7-2 0-3.9-.3-5.3-.7-1.5-.4-2.4-1.2-2.9-2.1-.6-.9-.7-2.2-.7-4v-1h7.2v1.3c0 1.2 0 1.9.2 2.2s.6.4 1.1.4c.6 0 .9-.1 1.3-.3.4-.1.4-.7.4-1.5 0-1-.2-1.6-.4-1.9-.4-.3-1.8-1-4.8-2.2-2.4-1-3.9-2.1-4.4-2.9-.6-.9-.7-1.9-.7-3.1 0-1.8.4-2.9.9-3.8.6-.7 1.5-1.5 2.9-1.9s2.9-.6 4.6-.6c1.8 0 3.3.1 4.4.6s2.2.9 2.8 1.5c.6.6 1.1 1.2 1.3 1.6.2.4.2 1.3.2 2.4 0 0-.1 1.2-.1 1.2z"/><path d="M101 30.8H83.5V19.1c0-3.4-.2-5.5-.6-6.3s-1.2-1.3-2.5-1.3c-1.4 0-2.3.5-2.7 1.5-.4 1-.6 3.2-.6 6.6v31.1c0 3.3.2 5.4.6 6.4s1.3 1.5 2.6 1.5 2.1-.5 2.5-1.5.6-3.3.6-7v-8.4h17.5v2.6c0 6.9-.5 11.9-1.5 14.8-1 2.9-3.2 5.5-6.5 7.6-3.4 2.2-7.5 3.3-12.4 3.3-5.1 0-9.3-.9-12.6-2.8-3.3-1.9-5.5-4.4-6.6-7.7s-1.6-8.2-1.6-14.8V25.1c0-4.8.2-8.5.5-10.9s1.3-4.7 3-7c1.6-2.2 3.9-4 6.8-5.3S76.3 0 80.1 0c5.1 0 9.4 1 12.7 3 3.3 2 5.5 4.5 6.6 7.4 1.1 3 1.6 7.6 1.6 13.8 0 0 0 6.6 0 6.6zm22.5-2.8l-.7 5.3c2.4-3.9 6-5.9 10.6-6.1v14.4c-3.1 0-5.3.4-6.8 1-1.4.6-2.3 1.5-2.7 2.5-.3 1.1-.5 3.6-.5 7.6v16.1h-16.7V28h16.8zM175 42.3v10c0 3.7-.2 6.4-.7 8.1-.5 1.8-1.6 3.3-3.2 4.8s-3.7 2.6-6.3 3.3c-2.6.7-5.5 1.1-8.8 1.1-3.7 0-6.8-.3-9.4-.9-2.6-.6-4.6-1.5-6-2.7-1.4-1.2-2.4-2.7-3-4.5-.6-1.8-.9-4.3-.9-7.8V43.3c0-3.8.6-6.7 1.7-8.9 1.1-2.1 3.1-3.9 6-5.2 2.9-1.3 6.5-1.9 11-1.9 3.8 0 7 .4 9.7 1.2 2.7.8 4.8 1.9 6.2 3.2 1.5 1.3 2.5 2.7 3 4.1.4 1.5.7 3.6.7 6.5zm-16.8-3.1c0-2.1-.2-3.4-.5-3.9s-1-.8-1.9-.8c-.9 0-1.7.3-2 .8s-.5 1.8-.5 3.9v18.4c0 1.9.2 3.2.5 3.8s1 .9 1.9.9c1 0 1.7-.3 2-.8s.5-1.7.5-3.4V39.2zm56.4 1.8h-14.9v-2.2c0-1.9-.1-3.1-.4-3.6s-1-.8-2.2-.8c-.9 0-1.6.3-2.1.7-.5.4-.7 1.1-.7 2.1 0 1.2.1 2.2.4 2.7.2.6.9 1.2 2.1 1.9 1.2.7 3.6 1.8 7.2 3.1 4.9 1.8 8.1 3.4 9.6 5s2.3 3.9 2.3 6.8c0 3.3-.6 5.9-1.7 7.5-1.2 1.7-3.1 3-5.8 3.9-2.7.9-6 1.4-9.8 1.4-4.3 0-7.9-.5-10.9-1.5s-5.1-2.3-6.2-4c-1.1-1.7-1.7-4.2-1.7-7.6v-1.9h14.8v2.6c0 2.2.2 3.6.6 4.3.4.6 1.1 1 2.2 1 1.2 0 2-.3 2.5-.7s.7-1.4.7-2.8c0-1.9-.3-3.2-.9-3.7-.6-.5-3.9-1.9-9.7-4.4-4.9-2-7.9-3.9-9-5.6s-1.6-3.7-1.6-6c0-3.2.6-5.7 1.7-7.2 1.2-1.6 3.1-2.7 5.9-3.6s6-1.2 9.7-1.2c3.6 0 6.7.4 9.3 1.1s4.5 1.6 5.9 2.7c1.4 1.1 2.2 2.2 2.5 3.2.3 1 .4 2.5.4 4.6V41s-.2 0-.2 0zm39.8 0h-14.8v-2.2c0-1.9-.1-3.1-.4-3.6s-1-.8-2.2-.8c-.9 0-1.6.3-2.1.7-.5.4-.7 1.1-.7 2.1 0 1.2.1 2.2.4 2.7.2.6.9 1.2 2.1 1.9 1.2.7 3.6 1.8 7.2 3.1 4.9 1.8 8.1 3.4 9.6 5s2.3 3.9 2.3 6.8c0 3.3-.6 5.9-1.7 7.5-1.2 1.7-3.1 3-5.8 3.9s-6 1.4-9.8 1.4c-4.3 0-7.9-.5-10.9-1.5s-5.1-2.3-6.2-4c-1.1-1.7-1.7-4.2-1.7-7.6v-1.9h14.8v2.6c0 2.2.2 3.6.6 4.3.4.6 1.1 1 2.2 1 1.2 0 2-.3 2.5-.7s.7-1.4.7-2.8c0-1.9-.3-3.2-.9-3.7s-3.9-1.9-9.7-4.4c-4.9-2-7.9-3.9-9-5.6-1.1-1.7-1.6-3.7-1.6-6 0-3.2.6-5.7 1.7-7.2 1.2-1.6 3.1-2.7 5.9-3.6s6-1.2 9.7-1.2c3.6 0 6.7.4 9.3 1.1s4.5 1.6 5.9 2.7c1.4 1.1 2.2 2.2 2.5 3.2.3 1 .4 2.5.4 4.6V41s-.3 0-.3 0zm6.3-39.5h29.5v13.4H278v12.7h10.8v12.8H278v28.1h-17.3v-67zm50.4 0v8.7h-17.2V1.5h17.2zm0 12.1v54.9h-17.2V13.6h17.2zm23.6-8.8v8.8h4.5v9h-4.5v30.3c0 3.8.2 5.8.6 6.2.4.5 1.9.6 4.7.6v9.1h-6.8c-3.8 0-6.5-.1-8.2-.5-1.6-.4-3.1-1.1-4.3-2.3-1.2-1.2-2-2.5-2.3-4-.3-1.6-.5-5.1-.5-10.7V22.6h-3.6v-9h3.6V4.8h16.8z"/><path fill="#ED5565" d="M48 34.2c2.7-3.6 4.4-8 4.4-12.9C52.4 9.5 42.8 0 31.1 0h-4.9v10.5h4.9c6 0 10.8 4.9 10.8 10.8 0 2-.6 3.9-1.5 5.5-4.1-2.6-8.9-4.2-14.1-4.2V70h14.1c.9 0 1.7-.3 2.4-.8h.1c.1 0 .1-.1.2-.1.1-.1.2-.2.3-.2C49 64.1 52.7 57 52.7 49c-.2-5.5-1.8-10.6-4.7-14.8z"/><path d="M26.3 22.7c-5.2 0-9.9 1.5-14 4.1-.9-1.6-1.5-3.4-1.5-5.4 0-6 4.9-10.8 10.8-10.8h4.7V0h-4.7C9.8 0 .3 9.6.3 21.3c0 4.8 1.7 9.2 4.3 12.8C1.7 38.3 0 43.4 0 48.9c0 8 3.7 15.1 9.3 19.9.1.1.2.1.2.2.1 0 .1.1.2.1h.1c.7.5 1.5.8 2.4.8h14.1V22.7z"/><path fill="#fff" d="M10.9 50.3c0-.5.4-.9.9-.9h2.5c0-.6 0-1.1 0-1.7h-2.5c-.5 0-.9-.4-.9-.9v-2c0-.5.4-.9.9-.9H15l.1-.3c.9-2.7 2.3-5 4.6-6.8 1.8-1.4 3.9-2.1 6.1-2.5 3.2-.5 6.3-.1 9.2 1.1.2.1.4.2.6.3.7.4.9.9.6 1.7-.3.8-.7 1.6-1 2.4-.3.7-.8.9-1.4.8-1-.2-2-.5-3-.8-2.1-.4-4.2-.5-6.3.3-1.8.7-2.8 2-3.6 3.8v.1H27c.5 0 .9.4.9.9v2c0 .5-.4.9-.9.9h-7.1c0 .5 0 1.1 0 1.7H27c.5 0 .9.4.9.9v2c0 .5-.4.9-.9.9h-6.4c.8 2.2 2 3.9 4.4 4.7 1.9.6 3.8.6 5.7.2 1-.2 2-.5 3-.8.8-.2 1.2.1 1.5.8.3.8.7 1.6 1 2.4.3.8.1 1.3-.6 1.7-.8.3-1.6.6-2.4.9-3.2.9-6.4.9-9.5-.1-3.8-1.3-6.4-3.9-7.9-7.5-.3-.7-.5-1.4-.7-2.2h-3c-.5 0-.9-.4-.9-.9v-2.2h-.3zm35-6.5c-1.4.1-1-5-6.3-9.9-5.6-5.2-12.3-3.4-12.3-5.3 0-2.3 5-1.2 8.1-.1 2.6.9 4.9 2.5 5.8 3.2 1 .8 2.9 2.9 4.3 5.3 1.3 2.3 2.9 6.7.4 6.8z"/></svg>