<svg xmlns="http://www.w3.org/2000/svg" width="200" height="100" viewBox="0 0 200 60.3"><path fill="#f90" d="M124 47.1c-11.6 8.6-28.5 13.1-43 13.1-20.4 0-38.7-7.5-52.5-20-1.1-1-.1-2.3 1.2-1.6 14.9 8.7 33.4 13.9 52.5 13.9 12.9 0 27-2.7 40-8.2 2.1-.7 3.7 1.4 1.8 2.8zM128.9 41.6c-1.5-1.9-9.8-.9-13.6-.4-1.1.1-1.3-.9-.3-1.6 6.7-4.7 17.6-3.3 18.8-1.7 1.2 1.6-.3 12.5-6.6 17.7-.9.8-1.9.4-1.4-.7 1.4-3.5 4.6-11.4 3.1-13.3z"/><path d="M115.6 6.6V2c0-.7.5-1.1 1.1-1.1H137c.6 0 1.2.5 1.2 1.1v3.9c0 .6-.6 1.5-1.6 2.9l-10.5 15.1c3.9-.1 8.1.5 11.6 2.5.8.4 1 1.1 1.1 1.7V33c0 .7-.7 1.4-1.5 1.1-6.2-3.3-14.6-3.6-21.5.1-.7.4-1.4-.4-1.4-1.1v-4.6c0-.7 0-2 .7-3.1l12.2-17.5h-10.6c-.6-.2-1.1-.6-1.1-1.3zM41.3 34.9h-6.2c-.6-.1-1.1-.5-1.1-1.1V2.1c0-.6.6-1.1 1.2-1.1H41c.6 0 1 .5 1.1 1v4.1h.1c1.5-4 4.3-5.9 8.1-5.9 3.9 0 6.3 1.9 8.1 5.9 1.5-4 4.9-5.9 8.6-5.9 2.6 0 5.4 1.1 7.2 3.5 1.9 2.7 1.6 6.6 1.6 9.9v20c0 .6-.6 1.1-1.2 1.1h-6.2c-.6-.1-1.1-.6-1.1-1.1V16.9c0-1.3.1-4.7-.2-5.9-.4-2.1-1.9-2.7-3.6-2.7-1.5 0-3.1 1-3.7 2.6s-.6 4.2-.6 6.1v16.9c0 .6-.6 1.1-1.2 1.1h-6.2c-.6-.1-1.1-.6-1.1-1.1v-17c0-3.6.6-8.7-3.8-8.7-4.4 0-4.2 5.1-4.2 8.7v16.9c-.2.6-.7 1.1-1.4 1.1zM155.7.3c9.2 0 14.2 7.9 14.2 17.9 0 9.7-5.5 17.4-14.2 17.4-9 0-13.9-7.9-13.9-17.7 0-9.9 5-17.6 13.9-17.6zm.1 6.5c-4.6 0-4.9 6.2-4.9 10.1s-.1 12.2 4.8 12.2c4.8 0 5-6.7 5-10.7 0-2.7-.1-5.9-.9-8.4-.6-2.4-2-3.2-4-3.2zM181.8 34.9h-6.2c-.6-.1-1.1-.6-1.1-1.1V2c.1-.6.6-1.1 1.2-1.1h5.7c.6 0 1 .4 1.1.9v4.9h.1c1.7-4.4 4.2-6.4 8.4-6.4 2.7 0 5.5 1 7.2 3.7 1.6 2.6 1.6 6.8 1.6 9.9v20c-.1.6-.6 1-1.2 1h-6.2c-.6-.1-1.1-.4-1.1-1V16.7c0-3.5.4-8.6-3.9-8.6-1.5 0-2.9 1-3.6 2.6-.9 1.9-1 3.9-1 6v17.1c.2.6-.4 1.1-1 1.1zM110.4 29.1c-1.1-1.6-2.3-2.9-2.3-5.7v-9.6c0-4.1.2-7.9-2.7-10.7C102.9.8 99 0 96 0c-5.9 0-12.5 2.2-13.9 9.5-.1.8.4 1.2.9 1.3l6 .6c.6 0 .9-.6 1.1-1.1.6-2.6 2.6-3.7 5-3.7 1.3 0 2.7.5 3.5 1.6.9 1.3.7 3 .7 4.5v.9c-3.6.4-8.2.6-11.6 2.1-3.9 1.7-6.6 5.1-6.6 10.1 0 6.4 4.1 9.6 9.2 9.6 4.4 0 6.8-1.1 10.2-4.5 1.1 1.6 1.5 2.4 3.6 4.1.4.2 1 .2 1.4-.1 1.2-1.1 3.5-3.1 4.8-4.2.6-.4.4-1.1.1-1.6zm-12.3-2.8c-1 1.7-2.6 2.8-4.3 2.8-2.4 0-3.7-1.8-3.7-4.5 0-5.2 4.7-6.2 9.2-6.2v1.4h.1c-.1 2.4 0 4.4-1.3 6.5zM29.2 29.1c-1.1-1.6-2.3-2.9-2.3-5.7v-9.6c0-4.1.2-7.9-2.7-10.7C21.7.8 17.8 0 14.8 0 8.9 0 2.3 2.1.9 9.5c-.1.8.4 1.2.9 1.3l6.1.6c.6 0 .9-.6 1.1-1.1.6-2.6 2.6-3.7 5-3.7 1.3 0 2.7.5 3.5 1.6.9 1.3.7 3 .7 4.5v.9c-3.6.4-8.2.6-11.6 2.1C2.7 17.3 0 20.8 0 25.8c0 6.4 4.1 9.6 9.2 9.6 4.4 0 6.8-1.1 10.2-4.5 1.1 1.6 1.5 2.4 3.6 4.1.4.2 1 .2 1.4-.1 1.2-1.1 3.5-3.1 4.7-4.2.6-.4.4-1.1.1-1.6zM17 26.3c-1 1.7-2.6 2.8-4.3 2.8-2.4 0-3.7-1.8-3.7-4.5 0-5.2 4.7-6.2 9.2-6.2v1.4h.1c-.1 2.4-.1 4.4-1.3 6.5z"/></svg>